<?xml version="1.0" standalone="no"?><!DOCTYPE svg PUBLIC "-//W3C//DTD SVG 1.1//EN" "http://www.w3.org/Graphics/SVG/1.1/DTD/svg11.dtd"><svg t="1784951041526" class="icon" viewBox="0 0 1024 1024" version="1.1" xmlns="http://www.w3.org/2000/svg" p-id="94640" xmlns:xlink="http://www.w3.org/1999/xlink" width="200" height="200"><path d="M835.5 487.7c-53.2-54-122.2-92.6-205.2-114.7-42.5-11.3-80.2-5.8-107.7-7.7v-170c0-13.4-7.4-25.5-19.3-31.5-11.7-5.9-26.3-4.8-36.9 2.9L78.8 448.9c-9.1 6.6-14.6 17.3-14.6 28.6s5.5 22 14.6 28.6L466.3 787c10.6 7.7 25.2 8.8 36.9 2.9 11.9-6.1 19.3-18.1 19.3-31.5V599.8c128 6.1 230.2 56 296.5 125.7 53.1 55.8 86.2 113.3 86.4 113.8l49.8-6.6c2.4-145.8-37.9-261.8-119.7-345z m-106.4 93.7c-68.9-28.6-150.3-53.2-241.9-53.2-19.5 0-35.4 15.9-35.4 35.4v125.5l-292-211.7 291.9-212.6v135c0 9.5 3.9 18.8 10.8 25.5 6.6 6.4 15.4 9.9 24.6 9.9h1.3c0.2 0 1.9-0.1 4.7-0.1 30.3 0 186.8-4.7 291.9 102.2 35.3 35.9 61.4 80.1 78 131.9-37-36.7-82-66.3-133.9-87.8z" p-id="94641" fill="#ffffff"></path></svg>